<?xml version="1.0" encoding="UTF-8" standalone="no"?>
<svg
   xmlns:dc="http://purl.org/dc/elements/1.1/"
   xmlns:cc="http://creativecommons.org/ns#"
   xmlns:rdf="http://www.w3.org/1999/02/22-rdf-syntax-ns#"
   xmlns:svg="http://www.w3.org/2000/svg"
   xmlns="http://www.w3.org/2000/svg"
   xmlns:sodipodi="http://sodipodi.sourceforge.net/DTD/sodipodi-0.dtd"
   xmlns:inkscape="http://www.inkscape.org/namespaces/inkscape"
   version="1.1"
   viewBox="0 0 512 512"
   stroke-miterlimit="10"
   id="svg8378"
   inkscape:version="0.91 r13725"
   sodipodi:docname="friflo-POST-512x512.svg"
   width="512"
   height="512"
   style="fill:none;stroke:none;stroke-linecap:square;stroke-miterlimit:10"
   inkscape:export-filename="G:\_dev\vscode-post-client\docs\images\friflo-POST-120x92.png"
   inkscape:export-xdpi="90"
   inkscape:export-ydpi="90">
  <metadata
     id="metadata8429">
    <rdf:RDF>
      <cc:Work
         rdf:about="">
        <dc:format>image/svg+xml</dc:format>
        <dc:type
           rdf:resource="http://purl.org/dc/dcmitype/StillImage" />
        <dc:title></dc:title>
      </cc:Work>
    </rdf:RDF>
  </metadata>
  <defs
     id="defs8427">
    <defs
       id="defs8399">
      <filter
         filterUnits="userSpaceOnUse"
         id="shadowFilter-p.1">
        <feGaussianBlur
           id="feGaussianBlur8402"
           result="blur"
           stdDeviation="4.5"
           in="SourceAlpha" />
        <feComponentTransfer
           id="feComponentTransfer8404"
           in="blur"
           style="color-interpolation-filters:sRGB">
          <feFuncR
             id="feFuncR8406"
             intercept="0.0"
             slope="0"
             type="linear" />
          <feFuncG
             id="feFuncG8408"
             intercept="0.0"
             slope="0"
             type="linear" />
          <feFuncB
             id="feFuncB8410"
             intercept="0.0"
             slope="0"
             type="linear" />
          <feFuncA
             id="feFuncA8412"
             intercept="0"
             slope="0.24"
             type="linear" />
        </feComponentTransfer>
      </filter>
    </defs>
    <filter
       style="color-interpolation-filters:sRGB"
       inkscape:label="Drop Shadow"
       id="filter12944">
      <feFlood
         flood-opacity="0.498039"
         flood-color="rgb(0,0,0)"
         result="flood"
         id="feFlood12946" />
      <feComposite
         in="flood"
         in2="SourceGraphic"
         operator="in"
         result="composite1"
         id="feComposite12948" />
      <feGaussianBlur
         in="composite1"
         stdDeviation="3"
         result="blur"
         id="feGaussianBlur12950" />
      <feOffset
         dx="6"
         dy="6"
         result="offset"
         id="feOffset12952" />
      <feComposite
         in="SourceGraphic"
         in2="offset"
         operator="over"
         result="composite2"
         id="feComposite12954" />
    </filter>
  </defs>
  <sodipodi:namedview
     pagecolor="#ffffff"
     bordercolor="#666666"
     borderopacity="1"
     objecttolerance="10"
     gridtolerance="10"
     guidetolerance="10"
     inkscape:pageopacity="0"
     inkscape:pageshadow="2"
     inkscape:window-width="2560"
     inkscape:window-height="1361"
     id="namedview8425"
     showgrid="false"
     inkscape:zoom="1.9975767"
     inkscape:cx="260.67324"
     inkscape:cy="222.58093"
     inkscape:window-x="-9"
     inkscape:window-y="-9"
     inkscape:window-maximized="1"
     inkscape:current-layer="svg8378" />
  <clipPath
     id="p.0">
    <path
       d="m 0,0 960,0 0,540 -960,0 0,-540 z"
       id="path8381"
       inkscape:connector-curvature="0"
       style="clip-rule:nonzero" />
  </clipPath>
  <path
     style="fill:#000000;fill-opacity:0;fill-rule:evenodd"
     inkscape:connector-curvature="0"
     id="path8385"
     d="m 0,-28 960,0 0,540 -960,0 z" />
  <g
     id="g8091"
     transform="matrix(4.3104867,0,0,4.3104867,-2.2893505,15.702595)">
    <rect
       ry="2.3737638"
       y="57.69912"
       x="8.1415949"
       height="40.353977"
       width="110.79647"
       id="rect8114"
       style="opacity:1;fill:#009c00;fill-opacity:1;fill-rule:nonzero;stroke:none;stroke-width:23.39999962;stroke-miterlimit:4;stroke-dasharray:none;stroke-dashoffset:0;stroke-opacity:1" />
    <path
       d="m 5.0942111,24.032602 72.9342109,0 0,30.018281 -72.9342109,0 z"
       id="path8417"
       inkscape:connector-curvature="0"
       style="fill:#000000;fill-opacity:0;fill-rule:evenodd" />
    <path
       d="m 10.852588,46.210714 72.934196,0 0,30.01828 -72.934196,0 z"
       id="path8421"
       inkscape:connector-curvature="0"
       style="fill:#000000;fill-opacity:0;fill-rule:evenodd" />
    <g
       transform="translate(-3.3628319,0.8849554)"
       id="g8108">
      <g
         id="p.1"
         style="filter:url(#filter12944)"
         transform="matrix(0.48689255,0,0,0.49178564,-60.157699,-27.810531)">
        <path
           style="fill:#ffffff;fill-rule:evenodd"
           inkscape:connector-curvature="0"
           id="path8415"
           d="m 131.82677,121.20998 0,0 c 0,-29.223259 23.69014,-52.91339 52.91339,-52.91339 l 0,0 c 14.03351,0 27.49223,5.574791 37.41542,15.497978 9.92317,9.92318 15.49797,23.381902 15.49797,37.415412 l 0,0 c 0,29.22325 -23.69014,52.91338 -52.91339,52.91338 l 0,0 c -29.22325,0 -52.91339,-23.69013 -52.91339,-52.91338 z" />
      </g>
      <path
         style="fill:#ff0000;fill-rule:nonzero"
         inkscape:connector-curvature="0"
         id="path8419"
         d="m 20.688423,16.257733 -0.57058,2.758613 -2.639868,0 -2.31274,11.180437 -3.727771,0 2.31274,-11.180437 -2.076903,0 0.570579,-2.758613 2.076899,0 0.296702,-1.429252 q 0.36517,-1.759668 0.692298,-2.3744 0.441247,-0.845256 1.316134,-1.337042 0.882493,-0.491785 2.297524,-0.491785 1.71173,0 3.613654,0.6301 l -0.730339,2.689453 q -1.338955,-0.453368 -2.168191,-0.453368 -0.639047,0 -0.950965,0.407263 -0.205405,0.261261 -0.426031,1.37546 l -0.213015,0.983571 2.639873,0 z m 1.923693,0 3.484325,0 -0.56297,2.704821 q 1.94757,-3.035237 4.222269,-3.035237 0.806416,0 1.726949,0.407258 l -1.422641,3.089029 q -0.509713,-0.18442 -1.080293,-0.18442 -0.966175,0 -1.962786,0.737678 -0.989,0.729997 -1.55197,1.959456 -0.555359,1.229464 -1.103113,3.888181 l -0.905318,4.372284 -3.727771,0 2.883319,-13.93905 z m 11.657137,-5.302063 3.727772,0 -0.699908,3.411762 -3.735382,0 0.707518,-3.411762 z m -1.095508,5.302063 3.727771,0 -2.883319,13.93905 -3.727771,0 2.883319,-13.93905 z" />
      <path
         style="fill:#ff0000;fill-rule:nonzero"
         inkscape:connector-curvature="0"
         id="path8423"
         d="m 26.446799,38.435849 -0.57058,2.758613 -2.639868,0 -2.31274,11.180437 -3.727771,0 2.31274,-11.180437 -2.076904,0 0.57058,-2.758613 2.076899,0 0.296702,-1.429252 q 0.36517,-1.759668 0.692298,-2.374405 0.441247,-0.845256 1.316134,-1.337042 0.882493,-0.491785 2.297524,-0.491785 1.711729,0 3.613654,0.6301 l -0.730339,2.689458 q -1.338955,-0.453368 -2.168191,-0.453368 -0.639047,0 -0.950965,0.407263 -0.205405,0.261261 -0.426031,1.37546 l -0.213015,0.983571 2.639873,0 z m -0.777042,13.93905 3.986433,-19.241118 3.712556,0 -3.971218,19.241118 -3.727771,0 z m 7.96417,-5.786163 q 0,-3.872812 2.160586,-6.178057 2.16819,-2.305246 5.682946,-2.305246 3.058294,0 4.770028,1.705882 1.719339,1.698195 1.719339,4.572067 0,3.381026 -2.14537,5.855323 -2.14537,2.466615 -5.743813,2.466615 -1.94757,0 -3.453894,-0.783784 -1.506324,-0.79147 -2.251878,-2.23609 -0.737944,-1.44462 -0.737944,-3.09671 z m 10.627949,-2.689453 q 0,-1.344729 -0.775985,-2.151562 -0.768375,-0.806838 -1.993217,-0.806838 -1.209621,0 -2.14537,0.760733 -0.935744,0.753047 -1.453067,2.18998 -0.517324,1.436939 -0.517324,2.643348 0,1.498412 0.798806,2.382087 0.806416,0.875993 2.031257,0.875993 1.536755,0 2.571402,-1.329355 1.483498,-1.874933 1.483498,-4.564386 z" />
    </g>
    <text
       sodipodi:linespacing="125%"
       id="text8104"
       y="89.927864"
       x="17.26198"
       style="font-style:normal;font-weight:normal;font-size:38.52589035px;line-height:125%;font-family:sans-serif;letter-spacing:0px;word-spacing:0px;fill:#ffffff;fill-opacity:1;stroke:none;stroke-width:1px;stroke-linecap:butt;stroke-linejoin:miter;stroke-opacity:1"
       xml:space="preserve"><tspan
         style="font-style:normal;font-variant:normal;font-weight:bold;font-stretch:normal;font-size:33.71015549px;line-height:125%;font-family:Arial;-inkscape-font-specification:'Arial, Bold';text-align:start;writing-mode:lr-tb;text-anchor:start;fill:#ffffff;fill-opacity:1;stroke:none;stroke-opacity:1"
         y="89.927864"
         x="17.26198"
         id="tspan8106"
         sodipodi:role="line">POST</tspan></text>
  </g>
</svg>
